<svg width="52" height="53" viewBox="0 0 52 53" fill="none" xmlns="http://www.w3.org/2000/svg">
<g id="Frame 1000004108" filter="url(#filter0_d_5005_131863)">
<circle id="Ellipse 16" cx="26" cy="31" r="20.0701" transform="rotate(8.05574 26 31)" fill="#EE6123" stroke="white" stroke-width="2.98099"/>
<g id="Frame" clip-path="url(#clip0_5005_131863)">
<path id="Vector" d="M30.2391 39.3578L30.2392 39.3578C30.7124 39.0823 31.1397 38.7321 31.5243 38.3395C31.6035 38.2576 31.6198 38.2198 31.6223 38.2023L31.6223 38.2022C31.6231 38.1968 31.6273 38.1671 31.5588 38.0886C31.46 37.9755 31.3919 37.8406 31.3791 37.6906C31.3661 37.5389 31.411 37.3878 31.5106 37.2477L31.5108 37.2474C31.5968 37.1271 31.7042 37.0406 31.8324 36.9949C31.9592 36.9498 32.0938 36.9488 32.2282 36.9779M30.2391 39.3578L33.886 39.4325L33.8732 39.5921C33.8733 39.5921 33.8733 39.5921 33.8734 39.5921C34.2326 39.6209 34.5317 39.4013 34.5932 39.0467L34.5933 39.0464C34.6236 38.8698 34.595 38.6954 34.5033 38.5528C34.4107 38.409 34.2619 38.3101 34.0765 38.273L34.0756 38.2728C33.4681 38.1548 33.0186 37.8295 32.6685 37.3165L32.6679 37.3158C32.5816 37.1909 32.4548 37.0229 32.2282 36.9779M30.2391 39.3578C28.7697 40.2134 27.1797 40.3541 25.4404 40.1425C24.9158 40.051 24.3258 39.9248 23.75 39.7173C22.2093 39.1531 21.0025 38.2091 20.2368 36.7517C20.1844 36.651 20.1766 36.6129 20.1784 36.5938L20.1785 36.5936C20.1789 36.5885 20.1817 36.5579 20.2708 36.4942L20.2708 36.4942L20.2716 36.4935C20.447 36.3661 20.5606 36.2003 20.5939 36.0168C20.6273 35.8325 20.5762 35.6488 20.4567 35.4956C20.3356 35.3352 20.1675 35.244 19.9758 35.2391C19.7888 35.2343 19.599 35.3117 19.4245 35.4471L19.4242 35.4474C18.9364 35.8285 18.4116 36.0239 17.7962 35.9687L17.7962 35.9687L17.795 35.9686C17.6102 35.9535 17.4397 36.0077 17.3111 36.1213C17.1835 36.234 17.1071 36.3961 17.0912 36.5803C17.0729 36.7518 17.1138 36.9139 17.2125 37.0435C17.3113 37.1731 17.4589 37.2584 17.6333 37.2937L17.6333 37.2937L17.6354 37.2941C18.031 37.3685 18.4292 37.3417 18.8075 37.2405L18.8075 37.2406L18.8113 37.2395C18.9101 37.2104 18.9362 37.2157 18.9435 37.2184L18.9435 37.2184C18.9459 37.2193 18.9721 37.229 19.021 37.3256C19.6031 38.5102 20.4752 39.4534 21.5899 40.1567L21.5899 40.1567C23.2419 41.198 25.0604 41.6028 26.9833 41.5783C29.1704 41.5546 31.0655 40.8109 32.5726 39.1838L32.5733 39.183C32.5998 39.154 32.6161 39.1421 32.6238 39.1375L30.2391 39.3578ZM32.2282 36.9779C32.2287 36.978 32.2293 36.9781 32.2298 36.9782L32.1957 37.1347L32.2265 36.9775C32.227 36.9776 32.2276 36.9777 32.2282 36.9779ZM32.6293 39.1349C32.6293 39.1349 32.6287 39.1352 32.6275 39.1355L32.6293 39.1349Z" fill="#E9F5FE" stroke="#E9F5FE" stroke-width="0.320339"/>
</g>
</g>
<defs>
<filter id="filter0_d_5005_131863" x="0.436646" y="0.436523" width="51.1267" height="52.127" filterUnits="userSpaceOnUse" color-interpolation-filters="sRGB">
<feFlood flood-opacity="0" result="BackgroundImageFix"/>
<feColorMatrix in="SourceAlpha" type="matrix" values="0 0 0 0 0 0 0 0 0 0 0 0 0 0 0 0 0 0 127 0" result="hardAlpha"/>
<feOffset dy="-5"/>
<feGaussianBlur stdDeviation="2"/>
<feComposite in2="hardAlpha" operator="out"/>
<feColorMatrix type="matrix" values="0 0 0 0 0 0 0 0 0 0 0 0 0 0 0 0 0 0 0.05 0"/>
<feBlend mode="normal" in2="BackgroundImageFix" result="effect1_dropShadow_5005_131863"/>
<feBlend mode="normal" in="SourceGraphic" in2="effect1_dropShadow_5005_131863" result="shape"/>
</filter>
<clipPath id="clip0_5005_131863">
<rect width="20.5017" height="7.68813" fill="white" transform="translate(16.3792 33.5947) rotate(8.05574)"/>
</clipPath>
</defs>
</svg>
