<svg width="140" height="140" viewBox="0 0 140 140" fill="none" xmlns="http://www.w3.org/2000/svg">
<g id="atoms">
<path id="bg" d="M0 70C0 31.3401 31.3401 0 70 0C108.66 0 140 31.3401 140 70C140 108.66 108.66 140 70 140C31.3401 140 0 108.66 0 70Z" fill="#0576CB"/>
<g id="tik_tok">
<path id="Vector" d="M63.4304 62.5605V59.8355C62.4968 59.7108 61.5476 59.6328 60.5674 59.6328C48.882 59.6175 39.375 69.1323 39.375 80.8431C39.375 88.0222 42.9537 94.376 48.4308 98.2225C44.8987 94.4384 42.7359 89.3459 42.7359 83.7708C42.7359 72.2313 51.9784 62.8253 63.4304 62.5605Z" fill="#25F4EE"/>
<path id="Vector_2" d="M63.9475 93.4605C69.1601 93.4605 73.4234 89.3026 73.6102 84.1324L73.6258 37.9277H82.0591C81.8879 36.9778 81.7946 35.9967 81.7946 35H70.2804L70.2648 81.2047C70.0782 86.3749 65.8147 90.5327 60.6022 90.5327C58.984 90.5327 57.4592 90.1279 56.1055 89.4115C57.8482 91.8564 60.7112 93.4605 63.9475 93.4605Z" fill="#25F4EE"/>
<path id="Vector_3" d="M97.8189 53.6155V51.0461C94.5981 51.0461 91.6105 50.0961 89.0898 48.4453C91.3304 51.0149 94.3645 52.8838 97.8189 53.6155Z" fill="#25F4EE"/>
<path id="Vector_4" d="M89.0837 48.4413C86.6252 45.6227 85.1471 41.9475 85.1471 37.9297H82.0664C82.8598 42.3212 85.474 46.0899 89.0837 48.4413Z" fill="#FE2C55"/>
<path id="Vector_5" d="M60.5883 71.1431C55.2513 71.1431 50.9102 75.4881 50.9102 80.8295C50.9102 84.5515 53.0263 87.7905 56.1071 89.4102C54.9557 87.8217 54.2711 85.8752 54.2711 83.7572C54.2711 78.4158 58.6122 74.0708 63.9493 74.0708C64.9451 74.0708 65.9097 74.2421 66.8122 74.5225V62.7495C65.8785 62.6248 64.9295 62.5469 63.9493 62.5469C63.7781 62.5469 63.6225 62.5625 63.4513 62.5625V71.5948C62.5333 71.3144 61.5841 71.1431 60.5883 71.1431Z" fill="#FE2C55"/>
<path id="Vector_6" d="M81.797 80.8484V57.4112C86.3095 60.6505 91.8487 62.5658 97.8238 62.5658V53.6115C94.3694 52.8797 91.3353 51.0109 89.0947 48.4413C85.4847 46.0899 82.8864 42.3212 82.0616 37.9297H73.6283L73.6127 84.1342C73.4261 89.3044 69.1625 93.4625 63.9502 93.4625C60.7137 93.4625 57.8662 91.8584 56.0924 89.4291C53.0116 87.7939 50.8955 84.5705 50.8955 80.8484C50.8955 75.507 55.2366 71.1621 60.5736 71.1621C61.5695 71.1621 62.5342 71.3333 63.4366 71.6137V62.5814C51.9847 62.8306 42.7422 72.2366 42.7422 83.7761C42.7422 89.3512 44.905 94.428 48.437 98.2278C51.8757 100.642 56.0769 102.074 60.5892 102.074C72.2746 102.074 81.797 92.5436 81.797 80.8484Z" fill="white"/>
</g>
</g>
</svg>
